PathFileType	4	(X/Y/Z)	D:\TRACE\spotREDO_2-26-24\spot_justArm_Motion_2_5-v60.trc
DataRate	CameraRate	NumFrames	NumMarkers	Units	OrigDataRate	OrigDataStartFrame	OrigNumFrames
100.00	100.00	      13	9	mm	100.00	2626	      7000
Frame#	Time	front left toe			Front right toe			aft left toe			aft right toe			Arm			FL body			FR body			AL Body			AR Body			
		X1	Y1	Z1	X2	Y2	Z2	X3	Y3	Z3	X4	Y4	Z4	X5	Y5	Z5	X6	Y6	Z6	X7	Y7	Z7	X8	Y8	Z8	X9	Y9	Z9	

2626	26.250	-279.36966	23.91188	-122.08704	143.70332	20.97730	-127.56027	-315.78574	12.14336	473.54437	111.20918	10.94904	450.40494	-44.88007	713.01306	-802.74359	-103.75166	574.57489	-185.76707	52.24427	579.33405	-178.64757	-150.15723	521.16956	694.94592	-2.09482	521.61688	703.80829	
2627	26.260	-280.72723	23.84488	-122.68764	142.57829	20.70108	-128.00781	-316.88568	13.50409	473.16626	109.83241	12.14436	450.14890	-46.10213	712.61084	-803.50232	-105.00708	574.51013	-186.03949	50.93531	579.20331	-178.90430	-151.30330	522.13477	694.68683	-3.41985	522.66046	703.49030	
2628	26.270	-281.84927	23.17910	-122.96260	141.28134	20.56095	-128.35619	-317.99573	14.41147	472.91751	108.92900	12.94698	449.73312	-47.17466	711.97675	-803.90436	-106.36154	574.16089	-186.26247	49.49099	578.89252	-179.44843	-152.65160	523.16669	694.38483	-4.82041	523.84558	703.24237	
2629	26.280	-283.10941	23.14925	-123.00818	140.45071	20.18655	-128.55894	-319.01678	15.19711	472.79135	107.89471	13.63782	449.57959	-48.15660	711.23816	-804.17700	-107.76178	573.93604	-186.86319	48.43513	578.65314	-179.75069	-153.48026	523.83514	693.99072	-7.10475	524.83551	702.97473	
2630	26.290	-284.35965	22.83250	-123.47147	139.06369	19.81622	-128.96649	-320.09897	16.31579	472.34531	106.45735	14.71809	449.23798	-49.26370	710.87659	-804.89087	-108.95979	573.40997	-187.14600	46.82513	578.37671	-180.16824	-154.93301	525.07367	693.75781	-8.10337	525.86127	702.68329	
2631	26.300	-285.24246	22.33317	-123.89909	137.92960	19.42914	-129.30589	-321.26212	17.32476	471.98996	105.69229	15.66495	448.83203	-49.67851	710.44824	-805.08978	-110.38377	573.13928	-187.52901	45.58080	578.00177	-180.42181	-156.38994	526.04065	693.57507	-9.16388	526.90295	702.28253	
2632	26.310	-286.12180	22.12113	-124.27891	137.08443	19.34435	-129.54306	-322.34402	18.43838	471.90524	104.14876	16.45297	448.64026	-50.88724	709.89471	-805.78674	-111.62465	572.63824	-187.71201	43.99511	577.66156	-181.03210	-157.64804	526.87146	693.08838	-10.15787	527.97363	701.89545	
2633	26.320	-287.67386	21.79685	-124.43794	135.99925	18.69674	-130.08572	-323.32498	19.13045	471.58414	103.48003	17.45267	448.19638	-51.80326	709.69495	-806.40283	-113.07660	572.29224	-188.17911	42.82088	577.22180	-181.39546	-158.82204	527.79932	692.78638	-11.00734	528.83710	701.64532	
2634	26.330	-288.49646	21.28847	-124.75121	134.92712	18.61643	-130.18300	-324.46759	19.97068	471.12845	102.38416	18.38771	448.01218	-52.55788	709.36725	-806.89728	-114.46677	571.73517	-188.59612	41.25188	576.82690	-181.84818	-160.22456	528.78918	692.47516	-12.35604	529.81824	701.40503	
2635	26.340	-289.44070	20.82590	-125.00299	133.86780	18.51592	-130.16882	-325.56009	21.03489	470.81674	101.22575	19.10943	447.86551	-53.34414	709.13806	-807.34863	-115.80063	571.16809	-189.01733	40.00269	576.30292	-182.05980	-161.23343	529.55341	692.14636	-13.46962	530.67749	700.97870	
2636	26.350	-290.52252	20.50998	-125.17983	132.61163	17.89899	-130.71280	-326.59476	21.95580	470.65646	100.21690	20.22993	447.44165	-54.33562	709.11481	-807.87854	-117.20354	570.60205	-189.46315	38.88103	575.87787	-182.43713	-162.85243	530.60895	692.05493	-14.82707	531.79120	700.80371	
2637	26.360	-291.81747	20.39277	-125.66805	131.62927	17.69505	-131.03743	-327.72766	22.82331	470.33493	98.64680	21.15812	447.05933	-54.85951	708.94501	-808.25305	-118.25278	570.05768	-189.71771	37.40295	575.38025	-182.93820	-164.39403	531.51947	691.67804	-16.15679	532.70264	700.54926	
2638	26.370	-292.82233	19.92025	-126.07101	130.56223	17.32423	-131.50517	-328.84158	23.78290	469.85678	98.14938	21.85233	446.88123	-54.13900	708.99921	-807.60919	-119.73080	569.60925	-190.09970	36.09604	575.09955	-183.36526	-165.96974	532.36853	691.27808	-17.64811	533.68463	700.15234	
